Patient4_TMGait_0pt4_03_left_25_GRF.mot
version=1
nRows=26
nColumns=19
inDegrees=no
endheader
time	F1x	F1y	F1z	M1x	M1y	M1z	F2x	F2y	F2z	M2x	M2y	M2z	EC1x	EC1y	EC1z	EC2x	EC2y	EC2z
32.85	-20.2838	-5.0809	-5.302	2.1578	-1.3113	-8.9475	-18.5193	727.4464	-56.9703	288.8991	69.3885	811.1479	-0.0592	0.0182	-0.0073	-0.0462	0.0165	0.9585
32.8638	-13.5497	-3.2067	-3.5779	1.4073	-0.8663	-5.7229	-18.987	727.5736	-57.6058	288.105	69.6043	803.0134	-0.0592	0.0182	-0.0073	-0.0462	0.0165	0.9585
32.8776	-7.8818	-1.5761	-2.1002	0.75816	-0.50583	-2.9354	-18.7	728.8845	-57.9106	287.8825	69.1611	796.2763	-0.0592	0.0182	-0.0073	-0.0462	0.0165	0.9585
32.8914	-3.595	-0.29055	-0.96011	0.25141	-0.24491	-0.75574	-17.6101	731.9306	-57.8789	288.4906	68.0674	791.9133	-0.0592	0.0182	-0.0073	-0.0462	0.0165	0.9585
32.9051	-0.65812	0.6377	-0.16066	-0.1109	-0.077285	0.79119	-15.8052	736.9076	-57.5889	289.9997	66.4558	790.2616	-0.0592	0.0182	-0.0073	-0.0462	0.0165	0.9585
32.9189	1.1273	1.2421	0.34639	-0.34576	0.0075755	1.7748	-13.4526	743.5704	-57.1646	292.275	64.5284	791.051	-0.0592	0.0182	-0.0073	-0.0462	0.0165	0.9585
32.9327	2.0324	1.5618	0.62847	-0.47513	0.024734	2.2851	-10.7408	751.2918	-56.7087	295.02	62.4713	793.5417	-0.0592	0.0182	-0.0073	-0.0462	0.0165	0.9585
32.9465	2.3189	1.6389	0.76088	-0.51899	-0.017717	2.4111	-7.8479	759.2014	-56.302	297.8424	60.4381	796.7272	-0.0592	0.0182	-0.0073	-0.0462	0.0165	0.9585
32.9603	2.2109	1.5028	0.80626	-0.4891	-0.11046	2.2165	-4.8983	766.3422	-55.9891	300.324	58.5215	799.5251	-0.0592	0.0182	-0.0073	-0.0462	0.0165	0.9585
32.9741	1.891	1.1483	0.80983	-0.3856	-0.23897	1.7238	-1.9804	771.821	-55.7893	302.0834	56.7704	800.9525	-0.0592	0.0182	-0.0073	-0.0462	0.0165	0.9585
32.9879	1.4787	0.55902	0.80662	-0.20457	-0.39507	0.94362	0.8482	774.9183	-55.7066	302.8201	55.2066	800.2283	-0.0592	0.0182	-0.0073	-0.0462	0.0165	0.9585
33.0016	1.0601	-0.2876	0.81785	0.060287	-0.56753	-0.13886	3.5618	775.2161	-55.7211	302.3644	53.8226	796.9063	-0.0592	0.0182	-0.0073	-0.0462	0.0165	0.9585
33.0154	0.69748	-1.4144	0.84596	0.41626	-0.73401	-1.5407	6.1471	772.6889	-55.8128	300.7112	52.6056	790.9626	-0.0592	0.0182	-0.0073	-0.0462	0.0165	0.9585
33.0292	0.44337	-2.7928	0.87231	0.85536	-0.85271	-3.2303	8.6003	767.6784	-55.9697	298.0093	51.5423	782.7421	-0.0592	0.0182	-0.0073	-0.0462	0.0165	0.9585
33.043	0.36146	-4.3069	0.86982	1.3406	-0.86923	-5.0797	10.9076	760.7992	-56.2132	294.5194	50.6573	772.85	-0.0592	0.0182	-0.0073	-0.0462	0.0165	0.9585
33.0568	0.52987	-5.7067	0.79186	1.7906	-0.70516	-6.7924	13.0459	752.8799	-56.5701	290.5892	49.9795	762.0948	-0.0592	0.0182	-0.0073	-0.0462	0.0165	0.9585
33.0706	1.0579	-6.5529	0.57643	2.061	-0.25693	-7.8453	15.003	744.863	-57.09	286.6141	49.5509	751.396	-0.0592	0.0182	-0.0073	-0.0462	0.0165	0.9585
33.0844	2.0616	-6.152	0.14821	1.9283	0.59607	-7.4173	16.7643	737.6559	-57.8055	282.9769	49.3967	741.6349	-0.0592	0.0182	-0.0073	-0.0462	0.0165	0.9585
33.0981	3.638	-3.5311	-0.5757	1.0802	1.9756	-4.3498	18.3218	731.9405	-58.7252	279.9732	49.5175	733.4605	-0.0592	0.0182	-0.0073	-0.0462	0.0165	0.9585
33.1119	5.8378	2.5312	-1.6647	-0.87572	3.9801	2.8203	19.6817	728.0498	-59.8099	277.7576	49.8662	727.1811	-0.0592	0.0182	-0.0073	-0.0462	0.0165	0.9585
33.1257	8.6032	13.4108	-3.1531	-4.377	6.634	15.744	20.8646	725.8532	-60.9791	276.2963	50.3587	722.6563	-0.0592	0.0182	-0.0073	-0.0462	0.0165	0.9585
33.1395	11.6972	30.4053	-4.9895	-9.8301	9.8024	35.976	21.8859	724.6814	-62.1085	275.3418	50.8755	719.2291	-0.0592	0.0182	-0.0073	-0.0462	0.0165	0.9585
33.1533	14.597	54.3151	-6.9963	-17.4794	13.1038	64.4887	22.7609	723.3678	-63.0409	274.4486	51.2653	715.777	-0.0592	0.0182	-0.0073	-0.0462	0.0165	0.9585
33.1671	16.3769	84.8055	-8.7958	-27.2058	15.7866	100.9207	23.5099	720.3954	-63.5884	273.0324	51.3484	710.8481	-0.0592	0.0182	-0.0073	-0.0462	0.0165	0.9585
33.1809	15.8208	119.769	-9.7749	-38.3142	16.7255	142.8005	24.1168	714.1689	-63.552	270.4803	50.9486	702.9273	-0.0592	0.0182	-0.0073	-0.0462	0.0165	0.9585
33.1946	12.3251	155.2465	-9.1312	-49.5055	14.7626	185.4248	24.5415	703.3955	-62.764	266.2963	49.9346	690.796	-0.0592	0.0182	-0.0073	-0.0462	0.0165	0.9585
